Coordinates
version=1
nRows=4
nColumns=63
inDegrees=yes

Units are S.I. units (second, meters, Newtons, ...)
If the header above contains a line with 'inDegrees', this indicates whether rotational values are in degrees (yes) or radians (no).

endheader
time	pelvis_tilt	pelvis_list	pelvis_rotation	pelvis_tx	pelvis_ty	pelvis_tz	hip_flexion_r	hip_adduction_r	hip_rotation_r	knee_angle_r	knee_angle_r_beta	ankle_angle_r	subtalar_angle_r	mtp_angle_r	hip_flexion_l	hip_adduction_l	hip_rotation_l	knee_angle_l	knee_angle_l_beta	ankle_angle_l	subtalar_angle_l	mtp_angle_l	L5_S1_Flex_Ext	L5_S1_Lat_Bending	L5_S1_axial_rotation	L4_L5_Flex_Ext	L4_L5_Lat_Bending	L4_L5_axial_rotation	L3_L4_Flex_Ext	L3_L4_Lat_Bending	L3_L4_axial_rotation	L2_L3_Flex_Ext	L2_L3_Lat_Bending	L2_L3_axial_rotation	L1_L2_Flex_Ext	L1_L2_Lat_Bending	L1_L2_axial_rotation	L1_T12_Flex_Ext	L1_T12_Lat_Bending	L1_T12_axial_rotation	Abs_r3	Abs_r2	Abs_r1	Abs_t1	Abs_t2	neck_flexion	neck_bending	neck_rotation	arm_flex_r	arm_add_r	arm_rot_r	elbow_flex_r	pro_sup_r	wrist_flex_r	wrist_dev_r	arm_flex_l	arm_add_l	arm_rot_l	elbow_flex_l	pro_sup_l	wrist_flex_l	wrist_dev_l
      1.73809524	      0.52107689	      4.48475870	     97.89258810	      0.19581533	      0.69078857	      0.93491684	      1.03364872	     -0.32997031	     -3.29267686	     12.07003195	      0.21066180	     20.21551738	      1.26358461	      0.00000000	     -2.76289871	     -2.99007973	      1.61351788	      2.95818913	      0.05163014	     24.81646730	      2.14996439	      0.00000000	      0.15149831	      0.63932541	      1.70513621	      0.28134751	      0.85030280	      1.81170723	      0.24889657	      1.55445580	      1.81170723	      0.17314742	      1.55445580	      1.49199419	      0.14068133	      1.30371238	      1.38542317	      0.08656613	      0.99031506	      1.27885216	      1.08213728	      7.23217690	      9.48345609	      0.00000000	      0.00000000	     26.22120676	     -0.33063366	      3.57343934	     34.78598626	     -9.74167307	     38.98449155	     80.06538490	     50.67846829	     18.86515061	     14.68657852	     44.17255115	    -21.46593977	     36.80548209	     65.86862742	     65.35994780	     -6.99551963	      9.98512353
      1.76190476	      0.55740971	      4.44940468	     97.54262840	      0.19651125	      0.69079954	      0.93518548	      1.15470619	     -0.26973645	     -2.87214588	     12.10056190	      0.21119465	     19.97284286	      1.05139813	      0.00000000	     -2.75229227	     -3.00781595	      1.09019200	      2.94371384	      0.05137750	     24.71698381	      2.07645176	      0.00000000	      0.13767870	      0.65211219	      1.72820647	      0.25568311	      0.86730922	      1.83621937	      0.22619233	      1.58554559	      1.83621937	      0.15735298	      1.58554559	      1.51218066	      0.12784844	      1.32978719	      1.40416776	      0.07866961	      1.01012179	      1.29615485	      0.98342517	      7.37682357	      9.61176592	      0.00000000	      0.00000000	     25.67513266	     -0.48699821	      4.27640364	     36.61691250	     -9.90462851	     41.07129431	     79.51570576	     53.78529985	     18.45910064	     13.32919917	     42.91251541	    -22.29650089	     36.44231039	     68.04727765	     64.19326012	     -7.99431592	      8.81633783
      1.78571429	      0.47243503	      4.38908753	     97.51458058	      0.19712912	      0.69093457	      0.93549258	      1.29520101	     -0.31561316	     -2.58778121	     12.14356650	      0.21194522	     19.91687882	      0.77145308	      0.00000000	     -2.68190451	     -2.92905226	      0.97693915	      2.87553789	      0.05018760	     24.65027822	      2.21748449	      0.00000000	      0.13352282	      0.63309681	      1.75753335	      0.24796523	      0.84201875	      1.86737918	      0.21936464	      1.53931158	      1.86737918	      0.15260323	      1.53931158	      1.53784168	      0.12398929	      1.29101101	      1.42799585	      0.07629494	      0.98066696	      1.31815001	      0.95374015	      7.16171771	      9.77487323	      0.00000000	      0.00000000	     24.92095693	     -0.57428993	      3.93070051	     37.99019616	    -10.16713749	     42.42017168	     79.51966513	     62.72813765	     17.84574295	     10.01326851	     42.30185630	    -22.77411555	     37.06412730	     69.17592105	     61.72016043	     -8.84951983	      5.67710125
      1.80952381	      0.36270093	      4.29144836	     97.56082092	      0.19724376	      0.69104418	      0.93562144	      1.49750081	     -0.43060054	     -2.34121610	     12.20565495	      0.21302887	     20.18276690	      0.72889375	      0.00000000	     -2.58539060	     -2.80235961	      1.28091171	      2.75345448	      0.04805685	     24.71896593	      2.42113410	      0.00000000	      0.14740033	      0.60660961	      1.79629658	      0.27373715	      0.80679079	      1.90856511	      0.24216400	      1.47491061	      1.90856511	      0.16846383	      1.47491061	      1.57175951	      0.13687594	      1.23699832	      1.45949097	      0.08422455	      0.93963829	      1.34722243	      1.05286580	      6.86208927	      9.99046268	      0.00000000	      0.00000000	     23.98388669	     -0.39007707	      3.25592081	     39.18479604	    -10.68480144	     43.74949160	     79.80036882	     64.33941756	     17.84174593	     10.15010445	     42.00115501	    -22.39804541	     36.95332357	     69.52245217	     61.61250406	     -8.95849820	      4.46535062
